<mxfile host="app.diagrams.net" modified="2023-02-27T21:21:01.803Z" agent="5.0 (Windows NT 10.0; Win64; x64) AppleWebKit/537.36 (KHTML, like Gecko) Chrome/110.0.0.0 Safari/537.36" etag="Lnssx-qKJiYZJN0FqZmu" version="20.8.23" type="github">
  <diagram id="C5RBs43oDa-KdzZeNtuy" name="Page-1">
    <mxGraphModel dx="1134" dy="640" grid="1" gridSize="10" guides="1" tooltips="1" connect="1" arrows="1" fold="1" page="1" pageScale="1" pageWidth="827" pageHeight="1169" math="0" shadow="0">
      <root>
        <mxCell id="WIyWlLk6GJQsqaUBKTNV-0" />
        <mxCell id="WIyWlLk6GJQsqaUBKTNV-1" parent="WIyWlLk6GJQsqaUBKTNV-0" />
        <mxCell id="dSutSLIeZjgEqDhLuPaw-1" value="The flowchart starts with reading in the values of a, b, and c.&lt;br&gt;It then checks if a is greater than b, swaps their values if necessary, &lt;br&gt;and proceeds to check if b is greater than c, swapping their values if necessary. Finally, the algorithm checks if a is greater than b again, swaps their values if necessary, and outputs the sorted values of a, b, and c.&lt;br&gt;&lt;div style=&quot;&quot;&gt;&lt;span style=&quot;background-color: initial;&quot;&gt;The flowchart ends once the values have been output.&lt;/span&gt;&lt;/div&gt;" style="text;html=1;strokeColor=none;fillColor=none;align=left;verticalAlign=middle;whiteSpace=wrap;rounded=0;fontSize=17;" vertex="1" parent="WIyWlLk6GJQsqaUBKTNV-1">
          <mxGeometry x="380" y="130" width="386" height="260" as="geometry" />
        </mxCell>
        <mxCell id="dSutSLIeZjgEqDhLuPaw-4" value="" style="edgeStyle=orthogonalEdgeStyle;rounded=0;orthogonalLoop=1;jettySize=auto;html=1;" edge="1" parent="WIyWlLk6GJQsqaUBKTNV-1" source="dSutSLIeZjgEqDhLuPaw-2">
          <mxGeometry relative="1" as="geometry">
            <mxPoint x="220" y="340" as="targetPoint" />
          </mxGeometry>
        </mxCell>
        <mxCell id="dSutSLIeZjgEqDhLuPaw-2" value="Start" style="strokeWidth=2;html=1;shape=mxgraph.flowchart.start_1;whiteSpace=wrap;" vertex="1" parent="WIyWlLk6GJQsqaUBKTNV-1">
          <mxGeometry x="170" y="220" width="100" height="60" as="geometry" />
        </mxCell>
        <mxCell id="dSutSLIeZjgEqDhLuPaw-7" value="" style="edgeStyle=orthogonalEdgeStyle;rounded=0;orthogonalLoop=1;jettySize=auto;html=1;" edge="1" parent="WIyWlLk6GJQsqaUBKTNV-1" source="dSutSLIeZjgEqDhLuPaw-6">
          <mxGeometry relative="1" as="geometry">
            <mxPoint x="210" y="470" as="targetPoint" />
          </mxGeometry>
        </mxCell>
        <mxCell id="dSutSLIeZjgEqDhLuPaw-6" value="Input a, b, c" style="shape=parallelogram;html=1;strokeWidth=2;perimeter=parallelogramPerimeter;whiteSpace=wrap;rounded=1;arcSize=12;size=0.23;" vertex="1" parent="WIyWlLk6GJQsqaUBKTNV-1">
          <mxGeometry x="140" y="340" width="140" height="70" as="geometry" />
        </mxCell>
        <mxCell id="dSutSLIeZjgEqDhLuPaw-24" value="Yes" style="edgeStyle=orthogonalEdgeStyle;rounded=0;orthogonalLoop=1;jettySize=auto;html=1;fontSize=17;" edge="1" parent="WIyWlLk6GJQsqaUBKTNV-1" source="dSutSLIeZjgEqDhLuPaw-11" target="dSutSLIeZjgEqDhLuPaw-23">
          <mxGeometry x="-0.1429" y="30" relative="1" as="geometry">
            <mxPoint as="offset" />
          </mxGeometry>
        </mxCell>
        <mxCell id="dSutSLIeZjgEqDhLuPaw-11" value="Is a &amp;gt; b?" style="strokeWidth=2;html=1;shape=mxgraph.flowchart.decision;whiteSpace=wrap;" vertex="1" parent="WIyWlLk6GJQsqaUBKTNV-1">
          <mxGeometry x="160" y="790" width="100" height="100" as="geometry" />
        </mxCell>
        <mxCell id="dSutSLIeZjgEqDhLuPaw-14" value="No" style="edgeStyle=orthogonalEdgeStyle;rounded=0;orthogonalLoop=1;jettySize=auto;html=1;fontSize=17;" edge="1" parent="WIyWlLk6GJQsqaUBKTNV-1" source="dSutSLIeZjgEqDhLuPaw-12" target="dSutSLIeZjgEqDhLuPaw-13">
          <mxGeometry x="-0.3333" y="20" relative="1" as="geometry">
            <mxPoint as="offset" />
          </mxGeometry>
        </mxCell>
        <mxCell id="dSutSLIeZjgEqDhLuPaw-18" value="Yes" style="edgeStyle=orthogonalEdgeStyle;rounded=0;orthogonalLoop=1;jettySize=auto;html=1;fontSize=17;" edge="1" parent="WIyWlLk6GJQsqaUBKTNV-1" source="dSutSLIeZjgEqDhLuPaw-12" target="dSutSLIeZjgEqDhLuPaw-17">
          <mxGeometry x="-0.7143" y="40" relative="1" as="geometry">
            <mxPoint as="offset" />
          </mxGeometry>
        </mxCell>
        <mxCell id="dSutSLIeZjgEqDhLuPaw-12" value="Is a&amp;nbsp; &amp;gt;&amp;nbsp; b?" style="strokeWidth=2;html=1;shape=mxgraph.flowchart.decision;whiteSpace=wrap;" vertex="1" parent="WIyWlLk6GJQsqaUBKTNV-1">
          <mxGeometry x="160" y="470" width="100" height="100" as="geometry" />
        </mxCell>
        <mxCell id="dSutSLIeZjgEqDhLuPaw-15" value="&lt;font style=&quot;font-size: 17px;&quot;&gt;No&lt;/font&gt;" style="edgeStyle=orthogonalEdgeStyle;rounded=0;orthogonalLoop=1;jettySize=auto;html=1;" edge="1" parent="WIyWlLk6GJQsqaUBKTNV-1" source="dSutSLIeZjgEqDhLuPaw-13" target="dSutSLIeZjgEqDhLuPaw-11">
          <mxGeometry x="-0.6667" y="20" relative="1" as="geometry">
            <mxPoint as="offset" />
          </mxGeometry>
        </mxCell>
        <mxCell id="dSutSLIeZjgEqDhLuPaw-22" value="Yes" style="edgeStyle=orthogonalEdgeStyle;rounded=0;orthogonalLoop=1;jettySize=auto;html=1;fontSize=17;" edge="1" parent="WIyWlLk6GJQsqaUBKTNV-1" source="dSutSLIeZjgEqDhLuPaw-13" target="dSutSLIeZjgEqDhLuPaw-21">
          <mxGeometry x="-0.4286" y="20" relative="1" as="geometry">
            <mxPoint as="offset" />
          </mxGeometry>
        </mxCell>
        <mxCell id="dSutSLIeZjgEqDhLuPaw-13" value="Is b &amp;gt; c?" style="strokeWidth=2;html=1;shape=mxgraph.flowchart.decision;whiteSpace=wrap;" vertex="1" parent="WIyWlLk6GJQsqaUBKTNV-1">
          <mxGeometry x="160" y="630" width="100" height="100" as="geometry" />
        </mxCell>
        <mxCell id="dSutSLIeZjgEqDhLuPaw-17" value="Swap values&lt;br&gt;of a with b" style="rounded=1;whiteSpace=wrap;html=1;absoluteArcSize=1;arcSize=14;strokeWidth=2;fontSize=17;" vertex="1" parent="WIyWlLk6GJQsqaUBKTNV-1">
          <mxGeometry x="330" y="470" width="100" height="100" as="geometry" />
        </mxCell>
        <mxCell id="dSutSLIeZjgEqDhLuPaw-21" value="Swap values&lt;br&gt;of b with c" style="rounded=1;whiteSpace=wrap;html=1;absoluteArcSize=1;arcSize=14;strokeWidth=2;fontSize=17;" vertex="1" parent="WIyWlLk6GJQsqaUBKTNV-1">
          <mxGeometry x="330" y="630" width="100" height="100" as="geometry" />
        </mxCell>
        <mxCell id="dSutSLIeZjgEqDhLuPaw-23" value="Swap values&lt;br&gt;of a with b" style="rounded=1;whiteSpace=wrap;html=1;absoluteArcSize=1;arcSize=14;strokeWidth=2;fontSize=17;" vertex="1" parent="WIyWlLk6GJQsqaUBKTNV-1">
          <mxGeometry x="330" y="790" width="100" height="100" as="geometry" />
        </mxCell>
        <mxCell id="dSutSLIeZjgEqDhLuPaw-26" value="if a &amp;gt; b, swap&amp;nbsp;&lt;br&gt;if a = 4, b = 3, c = 1" style="text;html=1;align=center;verticalAlign=middle;resizable=0;points=[];autosize=1;strokeColor=none;fillColor=none;fontSize=17;" vertex="1" parent="WIyWlLk6GJQsqaUBKTNV-1">
          <mxGeometry x="488" y="625" width="170" height="50" as="geometry" />
        </mxCell>
      </root>
    </mxGraphModel>
  </diagram>
</mxfile>
